<svg width="51" height="51" viewBox="0 0 51 51" fill="none" xmlns="http://www.w3.org/2000/svg">
<path d="M15.8585 49.592C15.4046 50.136 14.5954 50.136 14.142 49.592L1.17859 34.0507C0.772249 33.5623 1.10404 32.8011 1.72359 32.8011H7.93605V9.87012C7.93605 9.3895 8.30882 9 8.76879 9H21.2312C21.6912 9 22.064 9.3895 22.064 9.87012V32.8011H28.2764C28.896 32.8011 29.2277 33.5623 28.8214 34.0507L15.8585 49.592Z" fill="#ED3A3A"/>
<path d="M36.8585 1.40795C36.4046 0.864017 35.5954 0.864017 35.142 1.40795L22.1786 16.9493C21.7722 17.4377 22.104 18.1989 22.7236 18.1989H28.936V41.1299C28.936 41.6105 29.3088 42 29.7688 42H42.2312C42.6912 42 43.064 41.6105 43.064 41.1299V18.1989H49.2764C49.896 18.1989 50.2277 17.4377 49.8214 16.9493L36.8585 1.40795Z" fill="#3AED41"/>
</svg>
